<?xml version="1.0" encoding="utf-8"?>
<!-- Generator: Adobe Illustrator 26.2.1, SVG Export Plug-In . SVG Version: 6.00 Build 0)  -->
<svg version="1.1" id="Layer_1" xmlns="http://www.w3.org/2000/svg" xmlns:xlink="http://www.w3.org/1999/xlink" x="0px" y="0px"
	 viewBox="0 0 141.73 141.73" style="enable-background:new 0 0 141.73 141.73;" xml:space="preserve">
<style type="text/css">
	.st0{fill:none;stroke:#C93420;stroke-width:7;stroke-linecap:round;stroke-miterlimit:10;}
</style>
<g>
	<g>
		<line class="st0" x1="71.64" y1="71.13" x2="131.1" y2="71.13"/>
	</g>
	<g>
		<line class="st0" x1="109.06" y1="71.4" x2="123.23" y2="57.22"/>
		<line class="st0" x1="123.23" y1="85.57" x2="109.06" y2="71.4"/>
	</g>
	<g>
		<line class="st0" x1="91.51" y1="71.4" x2="102.14" y2="60.77"/>
		<line class="st0" x1="102.14" y1="82.03" x2="91.51" y2="71.4"/>
	</g>
	<g>
		<line class="st0" x1="71.64" y1="71.13" x2="12.18" y2="71.13"/>
	</g>
	<g>
		<line class="st0" x1="34.22" y1="70.87" x2="20.05" y2="85.04"/>
		<line class="st0" x1="20.05" y1="56.69" x2="34.22" y2="70.87"/>
	</g>
	<g>
		<line class="st0" x1="51.77" y1="70.87" x2="41.14" y2="81.5"/>
		<line class="st0" x1="41.14" y1="60.24" x2="51.77" y2="70.87"/>
	</g>
</g>
<g>
	<g>
		<line class="st0" x1="71.64" y1="71.13" x2="71.64" y2="11.67"/>
	</g>
	<g>
		<line class="st0" x1="71.91" y1="33.71" x2="57.73" y2="19.54"/>
		<line class="st0" x1="86.08" y1="19.54" x2="71.91" y2="33.71"/>
	</g>
	<g>
		<line class="st0" x1="71.91" y1="51.26" x2="61.28" y2="40.63"/>
		<line class="st0" x1="82.54" y1="40.63" x2="71.91" y2="51.26"/>
	</g>
	<g>
		<line class="st0" x1="71.64" y1="71.13" x2="71.64" y2="130.59"/>
	</g>
	<g>
		<line class="st0" x1="71.38" y1="108.55" x2="85.55" y2="122.72"/>
		<line class="st0" x1="57.2" y1="122.72" x2="71.38" y2="108.55"/>
	</g>
	<g>
		<line class="st0" x1="71.38" y1="91" x2="82.01" y2="101.63"/>
		<line class="st0" x1="60.75" y1="101.63" x2="71.38" y2="91"/>
	</g>
</g>
<g>
	<g>
		<line class="st0" x1="71.64" y1="71.13" x2="113.69" y2="29.09"/>
	</g>
	<g>
		<line class="st0" x1="98.29" y1="44.86" x2="98.29" y2="24.82"/>
		<line class="st0" x1="118.33" y1="44.86" x2="98.29" y2="44.86"/>
	</g>
	<g>
		<line class="st0" x1="71.64" y1="71.13" x2="29.6" y2="113.18"/>
	</g>
	<g>
		<line class="st0" x1="45" y1="97.4" x2="45" y2="117.45"/>
		<line class="st0" x1="24.95" y1="97.4" x2="45" y2="97.4"/>
	</g>
</g>
<g>
	<g>
		<line class="st0" x1="71.64" y1="71.13" x2="29.6" y2="29.09"/>
	</g>
	<g>
		<line class="st0" x1="45.37" y1="44.49" x2="25.33" y2="44.49"/>
		<line class="st0" x1="45.37" y1="24.44" x2="45.37" y2="44.49"/>
	</g>
	<g>
		<line class="st0" x1="71.64" y1="71.13" x2="113.69" y2="113.18"/>
	</g>
	<g>
		<line class="st0" x1="97.91" y1="97.78" x2="117.96" y2="97.78"/>
		<line class="st0" x1="97.91" y1="117.82" x2="97.91" y2="97.78"/>
	</g>
</g>
</svg>
