<?xml version="1.0" encoding="utf-8"?>
<!-- Generator: Adobe Illustrator 26.2.1, SVG Export Plug-In . SVG Version: 6.00 Build 0)  -->
<svg version="1.1" id="Layer_1" xmlns="http://www.w3.org/2000/svg" xmlns:xlink="http://www.w3.org/1999/xlink" x="0px" y="0px"
	 viewBox="0 0 141.73 141.73" style="enable-background:new 0 0 141.73 141.73;" xml:space="preserve">
<style type="text/css">
	.st0{fill:#C93420;}
</style>
<g>
	<path class="st0" d="M46.22,134.15c-1,0-1.97-0.4-2.67-1.11L8.69,98.19c-0.71-0.71-1.11-1.67-1.11-2.67v-49.3
		c0-1,0.4-1.97,1.11-2.67L43.55,8.69c0.7-0.7,1.68-1.11,2.67-1.11h49.29c1.01,0,1.96,0.39,2.67,1.11l34.85,34.85
		c0.7,0.7,1.11,1.68,1.11,2.67V95.5c0,1.01-0.39,1.96-1.11,2.67l-34.85,34.85c-0.71,0.71-1.67,1.11-2.67,1.11H46.22V134.15z"/>
</g>
</svg>
