<?xml version="1.0" encoding="utf-8"?>
<!-- Generator: Adobe Illustrator 28.3.0, SVG Export Plug-In . SVG Version: 6.00 Build 0)  -->
<svg version="1.1" id="Layer_1" xmlns="http://www.w3.org/2000/svg" xmlns:xlink="http://www.w3.org/1999/xlink" x="0px" y="0px"
	 viewBox="0 0 155.9 141.7" style="enable-background:new 0 0 155.9 141.7;" xml:space="preserve">
<style type="text/css">
	.st0{fill:#E88A80;}
	.st1{enable-background:new    ;}
	.st2{fill:#FFFFFF;}
</style>
<g>
	<path class="st0" d="M46.2,134.2c-1,0-2-0.4-2.7-1.1L8.7,98.2c-0.7-0.7-1.1-1.7-1.1-2.7V46.2c0-1,0.4-2,1.1-2.7L43.5,8.7
		c0.7-0.7,1.7-1.1,2.7-1.1h49.3c1,0,2,0.4,2.7,1.1L133,43.5c0.7,0.7,1.1,1.7,1.1,2.7v49.3c0,1-0.4,2-1.1,2.7L98.2,133
		c-0.7,0.7-1.7,1.1-2.7,1.1L46.2,134.2L46.2,134.2z"/>
</g>
<g class="st1">
	<g>
		<rect x="19.5" y="38.2" width="15" height="60.6"/>
		<path class="st2" d="M33,39.7v57.6H21V39.7H33 M36,36.7h-3H21h-3v3v57.6v3h3h12h3v-3V39.7V36.7L36,36.7z"/>
	</g>
	<g>
		<path d="M42.7,98.8V38.2H69c3.7,0.1,6.9,0.5,9.4,1.3c4.3,1.4,7.9,4.1,10.6,7.9c2.1,3,3.6,6.3,4.3,9.8c0.7,3.4,1.1,6.7,1.1,9.9
			c0,7.9-1.6,14.7-4.8,20.2C85.1,94.9,78.2,98.8,69,98.8H42.7z M66.9,85.8c5,0,8.5-2.4,10.5-7.5c1.1-2.9,1.7-6.4,1.7-10.4
			c0-5.6-0.9-9.9-2.5-12.8c-1.6-2.6-4.7-3.9-9.7-3.9h-9.6v34.6H66.9z"/>
		<path class="st2" d="M69,39.7c3.6,0.1,6.5,0.5,8.9,1.2c4,1.3,7.3,3.8,9.8,7.3c2,2.9,3.4,6,4.1,9.3c0.7,3.3,1.1,6.5,1.1,9.5
			c0,7.7-1.5,14.1-4.6,19.5C84.1,93.7,77.7,97.3,69,97.3H44.2V39.7H69 M55.8,87.3h11.1c5.7,0,9.6-2.8,11.9-8.4
			c1.2-3.1,1.8-6.7,1.8-11c0-5.9-0.9-10.4-2.7-13.5c-1.8-3.1-5.5-4.7-11-4.7H55.8V87.3 M69,36.7L69,36.7H44.2h-3v3v57.6v3h3H69
			c9.8,0,17.2-4.1,21.9-12.2c3.3-5.8,5-12.8,5-21c0-3.2-0.4-6.6-1.2-10.2c-0.8-3.7-2.4-7.2-4.6-10.4c-2.9-4.1-6.7-6.9-11.3-8.4
			C76.2,37.2,72.9,36.7,69,36.7L69,36.7L69,36.7z M58.8,52.7h8.1c1.6,0,6.5,0,8.4,3.2c1.5,2.6,2.3,6.7,2.3,12c0,3.8-0.5,7.2-1.6,9.9
			c-1.8,4.4-4.7,6.5-9.1,6.5h-8.1V52.7L58.8,52.7z"/>
	</g>
	<g>
		<path d="M123.3,100.2c-7.8,0-14.1-1.8-18.6-5.5c-4.7-3.7-7-8.9-7-15.3V78H112l0.2,1.3c0.3,2.3,0.9,4.1,1.8,5.2c1.6,2,4.6,3,8.9,3
			c2.7,0,4.8-0.3,6.4-0.9c2.8-1,4-2.7,4-5.3c0-1.4-0.6-2.4-1.8-3.1c-1.5-0.9-4-1.8-7.4-2.5l-6.1-1.4c-6.2-1.4-10.5-2.9-12.9-4.6
			c-4.3-2.9-6.5-7.5-6.5-13.7c0-5.6,2.1-10.3,6.1-14c4-3.7,9.9-5.5,17.5-5.5c6.4,0,11.9,1.7,16.4,5.1c4.6,3.5,7.1,8.6,7.3,15.2
			l0.1,1.6h-14.5l-0.1-1.4c-0.2-2.9-1.4-4.9-3.7-6.1c-1.6-0.8-3.8-1.3-6.3-1.3c-2.8,0-5,0.5-6.6,1.6c-1.4,1-2.1,2.2-2.1,4
			c0,1.5,0.6,2.6,2,3.3c0.7,0.4,2.5,1.1,7.1,2.2l9.9,2.4c4.5,1.1,8,2.6,10.4,4.5c3.8,3,5.7,7.3,5.7,12.9c0,5.7-2.2,10.5-6.6,14.2
			C137,98.4,131,100.2,123.3,100.2z"/>
		<path class="st2" d="M122.2,38c6.1,0,11.2,1.6,15.5,4.8c4.3,3.2,6.5,7.9,6.7,14H133c-0.2-3.5-1.7-5.9-4.5-7.4
			c-1.9-1-4.2-1.4-7-1.4c-3.1,0-5.6,0.6-7.4,1.9c-1.8,1.2-2.8,3-2.8,5.2c0,2.1,0.9,3.6,2.7,4.6c1.2,0.7,3.7,1.5,7.5,2.4l9.9,2.4
			c4.3,1,7.6,2.4,9.8,4.2c3.4,2.7,5.2,6.6,5.2,11.8c0,5.3-2,9.6-6,13.1s-9.7,5.2-17.1,5.2c-7.5,0-13.4-1.7-17.7-5.1
			c-4.3-3.4-6.4-8.1-6.4-14.1h11.5c0.4,2.6,1.1,4.6,2.1,5.9c2,2.4,5.3,3.6,10,3.6c2.8,0,5.1-0.3,6.9-0.9c3.4-1.2,5-3.4,5-6.7
			c0-1.9-0.8-3.4-2.5-4.4c-1.7-1-4.3-1.9-7.9-2.7l-6.1-1.4c-6-1.4-10.1-2.8-12.4-4.4c-3.9-2.7-5.8-6.8-5.8-12.5
			c0-5.2,1.9-9.4,5.6-12.9C109.5,39.7,115,38,122.2,38 M122.2,35c-8,0-14.2,2-18.5,5.9c-4.4,4-6.6,9.1-6.6,15.1
			c0,6.7,2.4,11.7,7.1,14.9c2.6,1.8,7,3.4,13.5,4.9l6.1,1.4c4,0.9,6,1.8,6.9,2.3c0.9,0.5,1.1,1.1,1.1,1.9c0,1.4-0.4,2.9-3,3.9
			c-1.4,0.5-3.4,0.8-5.9,0.8c-3.8,0-6.4-0.8-7.7-2.5c-0.5-0.6-1.1-1.8-1.5-4.4l-0.4-2.6h-2.6H99.2h-3v3c0,6.9,2.5,12.5,7.6,16.5
			c4.8,3.8,11.4,5.8,19.6,5.8c8.1,0,14.4-2,19-5.9c4.7-4.1,7.1-9.2,7.1-15.4c0-6.1-2.1-10.8-6.3-14.1c-2.6-2-6.2-3.6-11-4.7
			l-9.9-2.4c-4.8-1.1-6.3-1.8-6.7-2.1c-0.9-0.5-1.2-1-1.2-2c0-1.2,0.4-2.1,1.5-2.7c1.3-0.9,3.3-1.4,5.7-1.4c2.3,0,4.2,0.4,5.6,1.1
			c1.9,1,2.8,2.5,2.9,4.9l0.2,2.8h2.8h11.6h3.1l-0.1-3.1c-0.2-7-2.9-12.5-7.9-16.3C134.8,36.8,128.9,35,122.2,35L122.2,35z"/>
	</g>
</g>
</svg>
